<svg width="20" height="18" viewBox="0 0 20 18" fill="none" xmlns="http://www.w3.org/2000/svg">
<path fill-rule="evenodd" clip-rule="evenodd" d="M19.4167 5.09688C19.4167 2.28146 17.1352 0 14.3198 0C13.3295 0 12.4267 0.300958 11.65 0.796083V0.75725C11.5626 0.8155 11.485 0.87375 11.3976 0.941708C11.3587 0.970833 11.3102 0.999958 11.2617 1.03879C10.6015 1.53392 10.0578 2.18438 9.70833 2.94163C9.32 2.10671 8.69867 1.41742 7.96083 0.902875C7.922 0.883458 7.89288 0.854333 7.86375 0.825208C7.67929 0.708708 7.47542 0.601917 7.28125 0.504833C7.15504 0.466 7.05796 0.40775 6.94146 0.359208C6.89292 0.339792 6.84437 0.310667 6.79583 0.29125V0.310667C6.26187 0.126208 5.69879 0 5.09687 0C2.28146 0 0 2.28146 0 5.09688C0 5.18425 0.00970833 5.26192 0.00970833 5.33958H0C0 5.39783 0.00970833 5.45608 0.0194167 5.51433C0.029125 5.57258 0.029125 5.63083 0.0388333 5.68908C0.126208 6.68904 0.427167 7.76667 1.03879 8.90254C2.16496 10.9995 3.98042 12.7276 6.79583 15.077V15.0868C7.66958 15.8149 8.63071 16.5915 9.70833 17.475C10.3976 16.9119 11.0481 16.3877 11.65 15.8925C15.0285 13.116 17.1255 11.252 18.3779 8.92196C18.9895 7.78608 19.2905 6.71817 19.3778 5.71821C19.3875 5.65025 19.3875 5.58229 19.3972 5.51433C19.3972 5.45608 19.407 5.40754 19.4167 5.34929H19.407C19.407 5.26192 19.4167 5.18425 19.4167 5.09688Z" fill="black"/>
</svg>
