<svg width="43" height="25" viewBox="0 0 43 25" fill="none" xmlns="http://www.w3.org/2000/svg">
<path fill-rule="evenodd" clip-rule="evenodd" d="M23.6671 23.8124L41.9671 5.51237C42.5161 4.96337 42.8516 4.20087 42.8516 3.34687C42.8516 1.66937 41.4791 0.296875 39.8016 0.296875C38.9476 0.296875 38.1851 0.632375 37.6361 1.18137L21.5016 17.3464L5.36707 1.21187C4.81807 0.632374 4.05557 0.296873 3.20157 0.296873C1.52407 0.296873 0.151566 1.66937 0.151566 3.34687C0.151566 4.20087 0.487069 4.96337 1.03607 5.51237L19.3361 23.8124C19.8851 24.3614 20.6476 24.6969 21.5016 24.6969C22.3556 24.6969 23.1181 24.3614 23.6671 23.8124Z" fill="#D8D8D8"/>
</svg>
