<svg
                    width="22"
                    height="16"
                    viewBox="0 0 22 16"
                    fill="none"
                    xmlns="http://www.w3.org/2000/svg"
                  >
                    <path
                      fill-rule="evenodd"
                      clip-rule="evenodd"
                      d="M16.5 0.870098C16.5 0.391544 16.005 0 15.4 0H1.1C0.495 0 0 0.391544 0 0.870098C0 1.11373 0.121 1.33125 0.319 1.48787L5.5 5.57733V13.0515C5.5 13.53 5.995 13.9216 6.6 13.9216C6.908 13.9216 7.183 13.8259 7.381 13.6692L10.681 11.059C10.879 10.9023 11 10.6848 11 10.4412V5.57733L16.181 1.47917C16.379 1.33125 16.5 1.11373 16.5 0.870098ZM12.1 7.83088C12.1 8.30944 12.595 8.70098 13.2 8.70098H20.9C21.505 8.70098 22 8.30944 22 7.83088C22 7.35233 21.505 6.96079 20.9 6.96079H13.2C12.595 6.96079 12.1 7.35233 12.1 7.83088ZM20.9 13.9216H13.2C12.595 13.9216 12.1 14.3131 12.1 14.7917C12.1 15.2702 12.595 15.6618 13.2 15.6618H20.9C21.505 15.6618 22 15.2702 22 14.7917C22 14.3131 21.505 13.9216 20.9 13.9216ZM20.9 10.4412H13.2C12.595 10.4412 12.1 10.8327 12.1 11.3113C12.1 11.7898 12.595 12.1814 13.2 12.1814H20.9C21.505 12.1814 22 11.7898 22 11.3113C22 10.8327 21.505 10.4412 20.9 10.4412Z"
                      fill="black"
                    />
                  </svg>