<svg width="102" height="102" viewBox="0 0 102 102" fill="none" xmlns="http://www.w3.org/2000/svg">
<path d="M65.5928 65.5607L51.0214 50.9893L36.45 65.5607" stroke="#828282" stroke-width="9.36735" stroke-linecap="round" stroke-linejoin="round"/>
<path d="M51.0214 50.9893V83.775" stroke="#828282" stroke-width="9.36735" stroke-linecap="round" stroke-linejoin="round"/>
<path d="M81.5829 74.2685C85.1359 72.3315 87.9427 69.2664 89.5603 65.5571C91.1779 61.8477 91.5141 57.7053 90.5159 53.7836C89.5177 49.8619 87.242 46.3843 84.0479 43.8996C80.8538 41.4149 76.9232 40.0647 72.8765 40.0621H68.2865C67.1838 35.7972 65.1287 31.8377 62.2755 28.4814C59.4224 25.1251 55.8455 22.4592 51.8138 20.6843C47.7821 18.9093 43.4005 18.0714 38.9983 18.2336C34.5962 18.3958 30.2881 19.5539 26.3979 21.6207C22.5077 23.6875 19.1367 26.6094 16.5383 30.1665C13.9399 33.7237 12.1817 37.8237 11.3959 42.1581C10.6101 46.4926 10.8171 50.9488 12.0015 55.1918C13.1858 59.4347 15.3166 63.354 18.2336 66.6549" stroke="#828282" stroke-width="9.36735" stroke-linecap="round" stroke-linejoin="round"/>
<path d="M65.5928 65.5607L51.0214 50.9893L36.45 65.5607" stroke="#828282" stroke-width="9.36735" stroke-linecap="round" stroke-linejoin="round"/>
</svg>
