<svg width="16" height="17" viewBox="0 0 16 17" fill="none" xmlns="http://www.w3.org/2000/svg">
<path d="M11.9667 3.65726C12.4737 3.65726 12.8117 3.30013 12.8117 2.76443V0.978768C12.8117 0.532353 12.4737 0.0859375 11.9667 0.0859375C11.4597 0.0859375 11.1217 0.532353 11.1217 0.978768V2.76443C11.1217 3.30013 11.4597 3.65726 11.9667 3.65726ZM3.51672 3.65726C4.02372 3.65726 4.36172 3.30013 4.36172 2.76443V0.978768C4.36172 0.532353 4.02372 0.0859375 3.51672 0.0859375C3.00972 0.0859375 2.67172 0.532353 2.67172 0.978768V2.76443C2.67172 3.30013 3.00972 3.65726 3.51672 3.65726ZM14.5017 1.8716H13.6567V2.76443C13.6567 3.74654 12.8962 4.55009 11.9667 4.55009C11.0372 4.55009 10.2767 3.74654 10.2767 2.76443V1.8716H5.20672V2.76443C5.20672 3.74654 4.44622 4.55009 3.51672 4.55009C2.58722 4.55009 1.82672 3.74654 1.82672 2.76443V1.8716H0.981719C0.559219 1.8716 0.136719 2.31801 0.136719 2.76443V15.2641C0.136719 15.7105 0.559219 16.1569 0.981719 16.1569H14.5017C14.9242 16.1569 15.3467 15.7105 15.3467 15.2641V2.76443C15.3467 2.31801 14.9242 1.8716 14.5017 1.8716ZM5.20672 14.3712H1.82672V10.7999H5.20672V14.3712ZM5.20672 9.90708H1.82672V6.33575H5.20672V9.90708ZM9.43172 14.3712H6.05172V10.7999H9.43172V14.3712ZM9.43172 9.90708H6.05172V6.33575H9.43172V9.90708ZM13.6567 14.3712H10.2767V10.7999H13.6567V14.3712ZM13.6567 9.90708H10.2767V6.33575H13.6567V9.90708Z" fill="#4A4B57"/>
</svg>
