<svg width="22" height="22" viewBox="0 0 22 22" fill="none" xmlns="http://www.w3.org/2000/svg">
<path d="M4.67031 17.9153H12.5326C12.5704 17.9154 12.6078 17.908 12.6427 17.8936C12.6776 17.8792 12.7094 17.858 12.7361 17.8313C12.7628 17.8046 12.784 17.7729 12.7984 17.738C12.8128 17.703 12.8202 17.6656 12.8201 17.6278V16.931H7.48272C7.19957 16.9309 6.928 16.8185 6.72763 16.6184C6.52726 16.4184 6.41447 16.147 6.414 15.8638V7.38281H4.67031C4.63252 7.38271 4.59509 7.39008 4.56017 7.40449C4.52524 7.41891 4.49351 7.44008 4.46679 7.46679C4.44008 7.49351 4.41891 7.52524 4.40449 7.56017C4.39008 7.59509 4.38271 7.63252 4.38281 7.67031V17.6278C4.38271 17.6656 4.39008 17.703 4.40449 17.738C4.41891 17.7729 4.44008 17.8046 4.46679 17.8313C4.49351 17.858 4.52524 17.8792 4.56017 17.8936C4.59509 17.908 4.63252 17.9154 4.67031 17.9153V17.9153Z" fill="#6F6F6F"/>
<path d="M10.2949 3.85156H18.158C18.1957 3.85156 18.233 3.85899 18.2678 3.87342C18.3027 3.88784 18.3343 3.90899 18.361 3.93565C18.3876 3.96231 18.4088 3.99396 18.4232 4.02879C18.4376 4.06362 18.4451 4.10096 18.4451 4.13866V14.0967C18.4451 14.1728 18.4148 14.2459 18.361 14.2997C18.3071 14.3536 18.2341 14.3838 18.158 14.3838H10.2949C10.2572 14.3838 10.2199 14.3764 10.185 14.3619C10.1502 14.3475 10.1186 14.3264 10.0919 14.2997C10.0652 14.2731 10.0441 14.2414 10.0297 14.2066C10.0152 14.1717 10.0078 14.1344 10.0078 14.0967V4.13867C10.0078 4.06252 10.0381 3.9895 10.0919 3.93565C10.1457 3.88181 10.2188 3.85156 10.2949 3.85156V3.85156Z" fill="#6F6F6F"/>
<path d="M7.19922 5.90312V15.8622C7.19928 15.8999 7.20677 15.9371 7.22126 15.9719C7.23575 16.0067 7.25695 16.0382 7.28366 16.0648C7.31036 16.0914 7.34204 16.1124 7.37688 16.1267C7.41173 16.141 7.44905 16.1483 7.48671 16.1481H15.349C15.3866 16.1483 15.424 16.141 15.4588 16.1267C15.4936 16.1124 15.5253 16.0914 15.552 16.0648C15.5787 16.0382 15.5999 16.0067 15.6144 15.9719C15.6289 15.9371 15.6364 15.8999 15.6365 15.8622V15.1653H10.2991C10.0158 15.1649 9.7442 15.0522 9.54386 14.8519C9.34353 14.6515 9.2308 14.3799 9.2304 14.0966V5.61719H7.4867C7.44904 5.61705 7.41172 5.62433 7.37688 5.63863C7.34203 5.65293 7.31035 5.67396 7.28365 5.70052C7.25695 5.72708 7.23575 5.75865 7.22126 5.79341C7.20677 5.82818 7.19928 5.86546 7.19922 5.90312Z" fill="#6F6F6F"/>
</svg>
