<svg width="22" height="23" viewBox="0 0 22 23" fill="none" xmlns="http://www.w3.org/2000/svg">
<path fill-rule="evenodd" clip-rule="evenodd" d="M17.7418 15.9997H5.78902V14.8818L9.30454 11.3663L11.6178 13.6795C11.7443 13.8131 11.9201 13.8904 12.117 13.8904C12.3138 13.8904 12.4896 13.8131 12.6162 13.6865L17.5379 8.76477C17.6645 8.63821 17.7418 8.46243 17.7418 8.26556C17.7418 7.87886 17.4254 7.56246 17.0387 7.56246C16.8418 7.56246 16.666 7.6398 16.5395 7.76636L12.117 12.1959L9.80375 9.87567C9.67719 9.74911 9.50141 9.67177 9.30454 9.67177C9.10767 9.67177 8.9319 9.74911 8.80534 9.87567L5.78902 12.899V6.85935C5.78902 6.47265 5.47262 6.15625 5.08592 6.15625C4.69921 6.15625 4.38281 6.47265 4.38281 6.85935V16.7028C4.38281 16.8012 4.40391 16.8927 4.43906 16.977C4.54453 17.2301 4.79764 17.4059 5.08592 17.4059H17.7418C18.1285 17.4059 18.4449 17.0895 18.4449 16.7028C18.4449 16.3161 18.1285 15.9997 17.7418 15.9997Z" fill="#6F6F6F"/>
</svg>
