<svg width="24" height="7" viewBox="0 0 24 7" fill="none" xmlns="http://www.w3.org/2000/svg">
<path d="M1.99667 1.68653V3.29697H4.81712V4.42864H1.99667V6.64844H0.586442V0.554867H5.19144V1.68653H1.99667ZM10.8643 5.51677V6.64844H6.14614V0.554867H10.7511V1.68653H7.54767V3.00971H10.3768V4.10655H7.54767V5.51677H10.8643ZM16.7045 5.51677V6.64844H11.9864V0.554867H16.5914V1.68653H13.3879V3.00971H16.2171V4.10655H13.3879V5.51677H16.7045ZM17.8266 0.554867H20.5948C21.2564 0.554867 21.8397 0.682542 22.3446 0.937892C22.8553 1.18744 23.2499 1.54145 23.5285 1.99991C23.8128 2.45838 23.955 2.9923 23.955 3.60165C23.955 4.21101 23.8128 4.74492 23.5285 5.20339C23.2499 5.66186 22.8553 6.01877 22.3446 6.27412C21.8397 6.52366 21.2564 6.64844 20.5948 6.64844H17.8266V0.554867ZM20.5252 5.49066C21.1346 5.49066 21.6191 5.32236 21.979 4.98576C22.3446 4.64336 22.5274 4.18199 22.5274 3.60165C22.5274 3.02131 22.3446 2.56284 21.979 2.22625C21.6191 1.88385 21.1346 1.71265 20.5252 1.71265H19.2368V5.49066H20.5252Z" fill="#6F6F6F"/>
</svg>
