<svg width="14" height="13" viewBox="0 0 14 13" fill="none" xmlns="http://www.w3.org/2000/svg">
<g clip-path="url(#clip0_2045_52532)">
<path fill-rule="evenodd" clip-rule="evenodd" d="M13.1948 11.6355C12.8322 10.7958 11.0637 10.2423 9.8932 9.7207C8.71633 9.19907 8.88173 8.88736 8.8372 8.45478C8.83084 8.39753 8.83084 8.33391 8.82448 8.2703C9.22525 7.91406 9.55604 7.42423 9.77233 6.85806C9.77233 6.85806 9.78505 6.82626 9.78505 6.81989C9.82958 6.69903 9.86775 6.5718 9.90592 6.43821C10.1731 6.38096 10.3321 6.08833 10.3894 5.81479C10.453 5.70665 10.5739 5.43311 10.5484 5.12776C10.5103 4.73335 10.3512 4.54887 10.1731 4.47253C10.1731 4.44709 10.1731 4.428 10.1731 4.40256C10.1731 3.9 10.1286 3.1748 10.0331 2.6977C10.0141 2.56411 9.98226 2.43052 9.94409 2.30329C9.77233 1.71804 9.40973 1.1964 8.92626 0.827438C8.42371 0.445753 7.71759 0.242188 7.08781 0.242188C6.45803 0.242188 5.75191 0.445753 5.24936 0.827438C4.76589 1.1964 4.40329 1.71804 4.23153 2.30329C4.19337 2.43052 4.16156 2.56411 4.14247 2.6977C4.05342 3.1748 4.00252 3.9 4.00252 4.40256C4.00252 4.42164 4.00252 4.44072 4.00252 4.46617C3.81804 4.53615 3.65265 4.72063 3.61448 5.12776C3.58903 5.43311 3.7099 5.70665 3.77351 5.81479C3.83713 6.09469 3.99616 6.39368 4.27606 6.43821C4.30787 6.5718 4.3524 6.69903 4.39693 6.81989C4.39693 6.82626 4.40329 6.83898 4.40329 6.84534L4.40965 6.85806C4.62594 7.43695 4.9631 7.93314 5.37659 8.28938C5.37659 8.34663 5.37023 8.40389 5.36387 8.45478C5.31934 8.88736 5.44657 9.19907 4.2697 9.7207C3.09284 10.2423 1.33073 10.7958 0.968127 11.6355C0.605526 12.4752 0.751839 12.965 0.751839 12.965H13.4111C13.4111 12.965 13.5574 12.4752 13.1948 11.6355Z" fill="#4A4B57"/>
</g>
<defs>
<clipPath id="clip0_2045_52532">
<rect width="12.7228" height="12.7228" fill="white" transform="translate(0.722656 0.242188)"/>
</clipPath>
</defs>
</svg>
