<svg width="15" height="15" viewBox="0 0 15 15" fill="none" xmlns="http://www.w3.org/2000/svg">
<g clip-path="url(#clip0_2045_52527)">
<path fill-rule="evenodd" clip-rule="evenodd" d="M12.5836 9.58961H6.46663L6.02499 8.27129H11.9245C12.2145 8.27129 12.4518 8.08013 12.5441 7.81647H12.5507L13.869 3.86151H13.8624C13.8822 3.79559 13.902 3.72968 13.902 3.65717C13.902 3.29463 13.6053 2.99801 13.2428 2.99801H4.27162L3.98159 2.12792H3.975C3.88272 1.87084 3.64542 1.67969 3.35539 1.67969H1.37791C1.01537 1.67969 0.71875 1.97631 0.71875 2.33885C0.71875 2.70139 1.01537 2.99801 1.37791 2.99801H2.88079L5.0758 9.58961H4.01455C3.28947 9.58961 2.69623 10.1829 2.69623 10.9079C2.69623 11.633 3.28947 12.2263 4.01455 12.2263C4.73963 12.2263 5.33287 11.633 5.33287 10.9079H11.2653C11.2653 11.633 11.8586 12.2263 12.5836 12.2263C13.3087 12.2263 13.902 11.633 13.902 10.9079C13.902 10.1829 13.3087 9.58961 12.5836 9.58961ZM4.70667 4.31633H12.3266L11.4499 6.95297H5.58994L4.70667 4.31633Z" fill="black"/>
</g>
<defs>
<clipPath id="clip0_2045_52527">
<rect width="14.0621" height="14.0621" fill="white" transform="translate(0.714844 0.273438)"/>
</clipPath>
</defs>
</svg>
