<svg
          width="20"
          height="20"
          viewBox="0 0 20 20"
          fill="none"
          xmlns="http://www.w3.org/2000/svg"
        >
          <path
            d="M12.7671 12.741L10.0886 10.0625L7.41016 12.741"
            stroke="#6F6F6F"
            stroke-width="1.72189"
            stroke-linecap="round"
            stroke-linejoin="round"
          />
          <path
            d="M10.0898 10.0625V16.0891"
            stroke="#6F6F6F"
            stroke-width="1.72189"
            stroke-linecap="round"
            stroke-linejoin="round"
          />
          <path
            d="M15.7063 14.3429C16.3594 13.9869 16.8754 13.4234 17.1727 12.7416C17.47 12.0597 17.5318 11.2983 17.3484 10.5774C17.1649 9.85654 16.7466 9.21729 16.1594 8.76057C15.5723 8.30384 14.8498 8.05565 14.1059 8.05516H13.2622C13.0595 7.27119 12.6817 6.54337 12.1573 5.92642C11.6328 5.30947 10.9753 4.81944 10.2342 4.49317C9.49311 4.1669 8.68769 4.01288 7.8785 4.0427C7.0693 4.07251 6.27739 4.28538 5.56231 4.6653C4.84723 5.04522 4.22757 5.58231 3.74994 6.23618C3.2723 6.89005 2.94911 7.6437 2.80467 8.44045C2.66023 9.23721 2.69828 10.0563 2.91598 10.8363C3.13368 11.6162 3.52536 12.3366 4.06157 12.9434"
            stroke="#6F6F6F"
            stroke-width="1.72189"
            stroke-linecap="round"
            stroke-linejoin="round"
          />
          <path
            d="M12.7671 12.741L10.0886 10.0625L7.41016 12.741"
            stroke="#6F6F6F"
            stroke-width="1.72189"
            stroke-linecap="round"
            stroke-linejoin="round"
          />
        </svg>