<svg width="25" height="43" viewBox="0 0 25 43" fill="none" xmlns="http://www.w3.org/2000/svg">
<path fill-rule="evenodd" clip-rule="evenodd" d="M1.18809 23.6674L19.4877 41.9671C20.0367 42.5161 20.7992 42.8516 21.6532 42.8516C23.3307 42.8516 24.7031 41.4791 24.7031 39.8016C24.7031 38.9476 24.3676 38.1852 23.8186 37.6362L7.65397 21.502L23.7881 5.36781C24.3676 4.81882 24.7031 4.05633 24.7031 3.20235C24.7031 1.52488 23.3306 0.152409 21.6532 0.152409C20.7992 0.152409 20.0367 0.487904 19.4877 1.03689L1.18809 19.3365C0.639105 19.8855 0.303612 20.648 0.303612 21.502C0.303612 22.356 0.639105 23.1185 1.18809 23.6674Z" fill="#D8D8D8"/>
</svg>
