<svg width="25" height="43" viewBox="0 0 25 43" fill="none" xmlns="http://www.w3.org/2000/svg">
<path fill-rule="evenodd" clip-rule="evenodd" d="M23.8163 19.3329L5.51628 1.03294C4.96728 0.483937 4.20478 0.148438 3.35078 0.148438C1.67328 0.148438 0.300781 1.52094 0.300781 3.19844C0.300781 4.05244 0.636281 4.81494 1.18528 5.36394L17.3503 21.4984L1.21578 37.6329C0.636282 38.1819 0.300781 38.9444 0.300781 39.7984C0.300781 41.4759 1.67328 42.8484 3.35078 42.8484C4.20478 42.8484 4.96728 42.5129 5.51628 41.9639L23.8163 23.6639C24.3653 23.1149 24.7008 22.3524 24.7008 21.4984C24.7008 20.6444 24.3653 19.8819 23.8163 19.3329Z" fill="#D8D8D8"/>
</svg>
