<svg
                  width="11"
                  height="11"
                  viewBox="0 0 11 11"
                  fill="none"
                  xmlns="http://www.w3.org/2000/svg"
                >
                  <path
                    fill-rule="evenodd"
                    clip-rule="evenodd"
                    d="M9.9 4.4H6.6V1.1C6.6 0.495 6.105 0 5.5 0C4.895 0 4.4 0.495 4.4 1.1V4.4H1.1C0.495 4.4 0 4.895 0 5.5C0 6.105 0.495 6.6 1.1 6.6H4.4V9.9C4.4 10.505 4.895 11 5.5 11C6.105 11 6.6 10.505 6.6 9.9V6.6H9.9C10.505 6.6 11 6.105 11 5.5C11 4.895 10.505 4.4 9.9 4.4Z"
                    fill="#A4A4A4"
                  />
                </svg>