<svg width="35" height="35" viewBox="0 0 35 35" fill="none" xmlns="http://www.w3.org/2000/svg">
<path fill-rule="evenodd" clip-rule="evenodd" d="M34.7025 16.4116L32.9175 13.2966V9.83156C32.9175 9.04406 32.515 8.34406 31.85 7.94156L28.8575 6.19156L27.0725 3.11156C26.67 2.44656 25.97 2.04406 25.1825 2.04406H21.63L18.585 0.294062C17.92 -0.108438 17.0625 -0.108438 16.3975 0.294062L13.3525 2.04406H9.8875C9.1175 2.04406 8.4 2.44656 7.9975 3.11156L6.265 6.12156L3.115 7.94156C2.45 8.36156 2.03 9.06156 2.03 9.83156V13.4366L0.2975 16.4466C0.105 16.7791 0 17.1466 0 17.5141C0 17.8816 0.105 18.2491 0.2975 18.5816L2.03 21.5916V25.1966C2.03 25.9841 2.4325 26.6841 3.0975 27.0866L6.2125 28.8716L7.945 31.8816C8.3475 32.5466 9.0475 32.9491 9.835 32.9491H13.3175L16.3625 34.6991C16.695 34.8916 17.08 34.9966 17.4475 34.9966C17.815 34.9966 18.1825 34.8916 18.515 34.6991L21.56 32.9491H25.1125C25.8825 32.9491 26.6 32.5466 27.0025 31.8816L28.7875 28.8016L31.78 27.0516C32.445 26.6491 32.8475 25.9316 32.8475 25.1616V21.7141L34.6325 18.5991C35.105 17.9341 35.105 17.1116 34.7025 16.4116ZM25.8125 15.1691L17.045 23.9366C16.73 24.2516 16.2925 24.4441 15.8025 24.4441C15.3125 24.4441 14.875 24.2516 14.56 23.9366L9.2925 18.6691C8.9775 18.3541 8.785 17.9166 8.785 17.4266C8.785 16.4641 9.5725 15.6766 10.535 15.6766C11.025 15.6766 11.4625 15.8691 11.7775 16.1841L15.8025 20.2091L23.345 12.6841C23.66 12.3691 24.0975 12.1766 24.5875 12.1766C25.55 12.1766 26.3375 12.9641 26.3375 13.9266C26.3375 14.4166 26.1275 14.8541 25.8125 15.1691Z" fill="black"/>
</svg>
