<svg width="35" height="35" viewBox="0 0 35 35" fill="none" xmlns="http://www.w3.org/2000/svg">
<path fill-rule="evenodd" clip-rule="evenodd" d="M33.25 1.75C32.2875 1.75 31.5 2.5375 31.5 3.5V7.105C28.315 2.8175 23.2575 0 17.5 0C7.84 0 0 7.84 0 17.5C0 18.4625 0.7875 19.25 1.75 19.25C2.7125 19.25 3.5 18.4625 3.5 17.5C3.5 9.765 9.765 3.5 17.5 3.5C21.91 3.5 25.83 5.565 28.385 8.75H26.25C25.2875 8.75 24.5 9.5375 24.5 10.5C24.5 11.4625 25.2875 12.25 26.25 12.25H33.25C34.2125 12.25 35 11.4625 35 10.5V3.5C35 2.5375 34.2125 1.75 33.25 1.75ZM33.25 15.75C32.2875 15.75 31.5 16.5375 31.5 17.5C31.5 25.235 25.235 31.5 17.5 31.5C13.09 31.5 9.17 29.435 6.615 26.25H8.75C9.7125 26.25 10.5 25.4625 10.5 24.5C10.5 23.5375 9.7125 22.75 8.75 22.75H1.75C0.7875 22.75 0 23.5375 0 24.5V31.5C0 32.4625 0.7875 33.25 1.75 33.25C2.7125 33.25 3.5 32.4625 3.5 31.5V27.895C6.685 32.1825 11.7425 35 17.5 35C27.16 35 35 27.16 35 17.5C35 16.5375 34.2125 15.75 33.25 15.75Z" fill="black"/>
</svg>
