<svg width="17" height="17" viewBox="0 0 17 17" fill="none" xmlns="http://www.w3.org/2000/svg">
<path fill-rule="evenodd" clip-rule="evenodd" d="M12.75 15.3H1.7V4.25H9.146L10.846 2.55H0.85C0.3825 2.55 0 2.9325 0 3.4V16.15C0 16.6175 0.3825 17 0.85 17H13.6C14.0675 17 14.45 16.6175 14.45 16.15V6.154L12.75 7.854V15.3ZM16.15 0H10.2C9.7325 0 9.35 0.3825 9.35 0.85C9.35 1.3175 9.7325 1.7 10.2 1.7H14.1015L7.8965 7.8965C7.7435 8.0495 7.65 8.262 7.65 8.5C7.65 8.9675 8.0325 9.35 8.5 9.35C8.738 9.35 8.9505 9.2565 9.1035 9.1035L15.3 2.8985V6.8C15.3 7.2675 15.6825 7.65 16.15 7.65C16.6175 7.65 17 7.2675 17 6.8V0.85C17 0.3825 16.6175 0 16.15 0Z" fill="black"/>
</svg>
