<svg width="35" height="35" viewBox="0 0 35 35" fill="none" xmlns="http://www.w3.org/2000/svg">
<path fill-rule="evenodd" clip-rule="evenodd" d="M17.5 0C11.7425 0 6.685 2.8 3.5 7.0875V3.5C3.5 2.5375 2.7125 1.75 1.75 1.75C0.7875 1.75 0 2.5375 0 3.5V10.5C0 11.4625 0.7875 12.25 1.75 12.25H8.75C9.7125 12.25 10.5 11.4625 10.5 10.5C10.5 9.5375 9.7125 8.75 8.75 8.75H6.58C9.1525 5.5475 13.0725 3.5 17.5 3.5C25.235 3.5 31.5 9.765 31.5 17.5C31.5 25.235 25.235 31.5 17.5 31.5C9.765 31.5 3.5 25.235 3.5 17.5C3.5 16.5375 2.7125 15.75 1.75 15.75C0.7875 15.75 0 16.5375 0 17.5C0 27.16 7.84 35 17.5 35C27.16 35 35 27.16 35 17.5C35 7.84 27.16 0 17.5 0ZM17.5 5.25C16.5375 5.25 15.75 6.0375 15.75 7V17.5C15.75 17.99 15.9425 18.4275 16.2575 18.7425L21.5075 23.9925C21.8225 24.3075 22.26 24.5 22.75 24.5C23.7125 24.5 24.5 23.7125 24.5 22.75C24.5 22.26 24.3075 21.8225 23.9925 21.5075L19.25 16.7825V7C19.25 6.0375 18.4625 5.25 17.5 5.25Z" fill="black"/>
</svg>
